<svg width="20" height="20" viewBox="0 0 20 20" fill="none" xmlns="http://www.w3.org/2000/svg">
<path d="M9.11655 7.36651C9.23222 7.25038 9.36984 7.1582 9.52147 7.09529C9.6731 7.03239 9.83574 7 10 7C10.1643 7 10.3269 7.03239 10.4785 7.09529C10.6302 7.1582 10.7678 7.25038 10.8835 7.36651L14.6163 11.0837C14.7356 11.1992 14.8309 11.337 14.8967 11.4892C14.9625 11.6414 14.9976 11.805 14.9999 11.9707C15.0022 12.1364 14.9717 12.3009 14.9102 12.4548C14.8486 12.6088 14.7572 12.7492 14.6412 12.868C14.5252 12.9867 14.3868 13.0816 14.234 13.1471C14.0812 13.2127 13.9169 13.2476 13.7505 13.2499C13.5841 13.2522 13.4189 13.2218 13.2643 13.1605C13.1097 13.0993 12.9687 13.0083 12.8494 12.8927L10 9.99333L7.15056 12.8927C7.03127 13.0083 6.89031 13.0993 6.7357 13.1605C6.5811 13.2218 6.41589 13.2522 6.24951 13.2499C6.08313 13.2476 5.91883 13.2127 5.766 13.1471C5.61316 13.0816 5.47479 12.9867 5.35877 12.868C5.24275 12.7492 5.15137 12.6088 5.08983 12.4548C5.02829 12.3009 4.99781 12.1364 5.00012 11.9707C5.00243 11.805 5.03749 11.6414 5.1033 11.4892C5.16911 11.337 5.26437 11.1992 5.38366 11.0837L9.11655 7.36651Z" fill="#A8B2CC"/>
</svg>
