<svg width="26" height="26" viewBox="0 0 26 26" fill="none" xmlns="http://www.w3.org/2000/svg">
<g clip-path="url(#clip0)">
<path d="M3.84101 19.1101H4.36253H7.70716H8.14847C8.41432 19.1101 8.62986 18.8946 8.62986 18.6287C8.62986 18.3764 8.43562 18.1698 8.18855 18.1494V13.8199C8.18855 13.554 7.97301 13.3385 7.70716 13.3385H4.36253C4.09669 13.3385 3.88114 13.554 3.88114 13.8199V18.1474H3.84101C3.57516 18.1474 3.35962 18.3629 3.35962 18.6288C3.35962 18.8946 3.57516 19.1101 3.84101 19.1101ZM7.22577 14.3012V15.7428H4.84392V14.3012H7.22577ZM4.84392 16.7057H7.22577V18.1473H4.84392V16.7057Z" fill="white"/>
<path d="M11.5883 19.1103C11.7152 19.1103 11.8392 19.0586 11.9289 18.9689C12.0185 18.8792 12.0697 18.7553 12.0697 18.6289C12.0697 18.5019 12.0185 18.378 11.9289 18.2883C11.8392 18.1987 11.7152 18.1475 11.5883 18.1475C11.4619 18.1475 11.3374 18.1987 11.2483 18.2883C11.1587 18.378 11.1069 18.5019 11.1069 18.6289C11.1069 18.7553 11.1586 18.8798 11.2483 18.9689C11.3374 19.0586 11.4619 19.1103 11.5883 19.1103Z" fill="white"/>
<path d="M17.829 19.1101H18.3505H21.6952H22.1365C22.4023 19.1101 22.6178 18.8946 22.6178 18.6287C22.6178 18.3764 22.4236 18.1698 22.1766 18.1494V13.8199C22.1766 13.554 21.961 13.3385 21.6952 13.3385H18.3505C18.0847 13.3385 17.8691 13.554 17.8691 13.8199V18.1474H17.829C17.5632 18.1474 17.3477 18.3629 17.3477 18.6288C17.3477 18.8946 17.5632 19.1101 17.829 19.1101ZM21.2138 14.3012V15.7428H18.8319V14.3012H21.2138ZM18.8319 16.7057H21.2138V18.1473H18.8319V16.7057Z" fill="white"/>
<path d="M25.5186 22.9963H25.0724V12.1607H25.5136H25.5148C25.7807 12.1607 25.9962 11.9452 25.9962 11.6793C25.9962 11.6218 25.9862 11.5666 25.9676 11.5155L24.0665 4.75376C24.0081 4.5461 23.8188 4.40265 23.6031 4.40265H21.6951V2.52222C21.6951 2.25637 21.4796 2.04083 21.2137 2.04083H18.3504C18.0846 2.04083 17.869 2.25637 17.869 2.52222V4.40265H2.39189C2.17623 4.40265 1.98686 4.5461 1.9285 4.75376L0.0179825 11.549C-0.0228152 11.6941 0.0066699 11.8499 0.0976524 11.97C0.188695 12.0901 0.330705 12.1607 0.48138 12.1607H0.962769V22.9963H0.516461C0.250614 22.9963 0.0350718 23.2118 0.0350718 23.4777C0.0350718 23.7435 0.250614 23.9591 0.516461 23.9591H25.5186C25.7844 23.9591 26 23.7435 26 23.4777C26 23.2118 25.7844 22.9963 25.5186 22.9963ZM15.4044 22.9963H10.6206V14.3012H15.4044V22.9963ZM16.3672 21.0256H24.1096V22.9963H16.3672V21.0256ZM18.8318 3.00361H20.7323V4.40265H18.8318V3.00361ZM2.75654 5.36543H23.2384L24.8782 11.1979H1.11675L2.75654 5.36543ZM24.1096 12.1607V20.0629H16.3672V13.8199C16.3672 13.554 16.1517 13.3385 15.8858 13.3385H10.1392C9.8734 13.3385 9.65786 13.554 9.65786 13.8199V20.0629H1.92555V12.1607H24.1096ZM1.92555 21.0256H9.65786V21.1052V22.9963H1.92555V21.0256Z" fill="white"/>
</g>
<defs>
<clipPath id="clip0">
<rect width="26" height="26" fill="white"/>
</clipPath>
</defs>
</svg>
