<svg width="18" height="18" viewBox="0 0 18 18" fill="none" xmlns="http://www.w3.org/2000/svg">
<path d="M9 0.40625C4.26141 0.40625 0.40625 4.26141 0.40625 9C0.40625 13.7386 4.26141 17.5938 9 17.5938C13.7386 17.5938 17.5938 13.7386 17.5938 9C17.5938 4.26141 13.7386 0.40625 9 0.40625ZM9 3.92969C9.22096 3.92969 9.43696 3.99521 9.62068 4.11797C9.8044 4.24073 9.94759 4.41521 10.0321 4.61935C10.1167 4.82349 10.1388 5.04811 10.0957 5.26483C10.0526 5.48154 9.94621 5.6806 9.78997 5.83685C9.63373 5.99309 9.43467 6.09949 9.21795 6.1426C9.00124 6.1857 8.77661 6.16358 8.57247 6.07902C8.36833 5.99446 8.19385 5.85127 8.07109 5.66755C7.94833 5.48383 7.88281 5.26783 7.88281 5.04688C7.88281 4.75058 8.00052 4.46642 8.21003 4.2569C8.41954 4.04739 8.7037 3.92969 9 3.92969ZM11.0625 13.6406H7.28125C7.09891 13.6406 6.92405 13.5682 6.79511 13.4393C6.66618 13.3103 6.59375 13.1355 6.59375 12.9531C6.59375 12.7708 6.66618 12.5959 6.79511 12.467C6.92405 12.3381 7.09891 12.2656 7.28125 12.2656H8.48438V8.48438H7.79688C7.61454 8.48438 7.43967 8.41194 7.31074 8.28301C7.18181 8.15408 7.10938 7.97921 7.10938 7.79688C7.10938 7.61454 7.18181 7.43967 7.31074 7.31074C7.43967 7.18181 7.61454 7.10938 7.79688 7.10938H9.17188C9.35421 7.10938 9.52908 7.18181 9.65801 7.31074C9.78694 7.43967 9.85938 7.61454 9.85938 7.79688V12.2656H11.0625C11.2448 12.2656 11.4197 12.3381 11.5486 12.467C11.6776 12.5959 11.75 12.7708 11.75 12.9531C11.75 13.1355 11.6776 13.3103 11.5486 13.4393C11.4197 13.5682 11.2448 13.6406 11.0625 13.6406Z" fill="#FF0E0E"/>
</svg>
