<svg width="27" height="26" viewBox="0 0 27 26" fill="none" xmlns="http://www.w3.org/2000/svg">
<path d="M4.10279 23.282C4.40362 23.2849 4.69612 23.1869 4.93012 23.0048C5.16413 22.8227 5.32508 22.5679 5.38536 22.2841C5.44565 22.0003 5.40152 21.7051 5.26054 21.4492C5.11956 21.1933 4.89051 20.9926 4.61267 20.8815C4.33483 20.7704 4.02551 20.7558 3.73774 20.8403C3.44997 20.9247 3.20169 21.103 3.03546 21.3445C2.86923 21.5859 2.79541 21.8755 2.82666 22.1637C2.85791 22.4518 2.99228 22.7205 3.20673 22.9237C3.32428 23.0372 3.46393 23.1273 3.61769 23.1888C3.77145 23.2503 3.9363 23.2819 4.10279 23.282ZM3.80917 21.7756C3.87603 21.709 3.96487 21.6669 4.06046 21.6565C4.15604 21.6461 4.25241 21.668 4.33302 21.7186C4.41364 21.7691 4.47348 21.8451 4.50229 21.9334C4.53109 22.0218 4.52706 22.1171 4.49088 22.2029C4.4547 22.2888 4.38864 22.3598 4.30402 22.4038C4.2194 22.4479 4.12149 22.4622 4.02711 22.4443C3.93272 22.4265 3.84773 22.3775 3.78672 22.3059C3.72571 22.2343 3.69248 22.1445 3.69273 22.0519C3.69379 21.9489 3.7354 21.8501 3.80917 21.7756ZM24.8244 18.1673H21.0942H21.0816H18.6085L21.5229 16.5472L24.7527 14.7515C24.7983 14.7264 24.8371 14.6922 24.8785 14.6646C25.3 14.3964 25.6049 13.9889 25.7357 13.519C25.7893 13.3142 25.8092 13.1025 25.7948 12.8917C25.7948 12.8397 25.7948 12.7869 25.7889 12.7349C25.7838 12.6959 25.7694 12.6585 25.7619 12.6195C25.7214 12.3941 25.6412 12.177 25.5248 11.9777L23.601 8.76829C23.53 8.65011 23.4469 8.53905 23.3529 8.43679C23.03 8.08834 22.5922 7.85769 22.1134 7.78369C21.6345 7.7097 21.1438 7.79687 20.7238 8.03054L17.4939 9.82616L15.8233 10.7557L16.7844 9.15179L16.7903 9.1461L18.6566 6.03504C18.7107 5.94017 18.7567 5.84127 18.7942 5.73929C18.8034 5.71573 18.8186 5.69298 18.8271 5.66941C18.8423 5.62554 18.8482 5.58004 18.8608 5.53535C18.8876 5.44852 18.9082 5.36002 18.9224 5.27048C18.9735 4.88821 18.9092 4.49987 18.7371 4.15189C18.565 3.80391 18.2925 3.51103 17.9521 3.30829C17.9276 3.29366 17.9082 3.27416 17.8838 3.26035L14.551 1.40785C14.2784 1.24468 13.9684 1.14859 13.6482 1.12804C13.3281 1.10749 13.0075 1.16313 12.715 1.29004C12.6652 1.30873 12.6137 1.32173 12.5656 1.34366C12.5175 1.3656 12.4517 1.41029 12.3969 1.44441C12.3351 1.47719 12.2751 1.51299 12.2171 1.55166C12.1733 1.58416 12.1328 1.62479 12.0956 1.66054C12.0321 1.71113 11.9718 1.7654 11.9151 1.82304C11.8351 1.91303 11.7634 2.00954 11.7008 2.11148C11.6923 2.12448 11.6814 2.13504 11.6729 2.14885L9.80064 5.25829L8.13423 8.04435V2.09604C8.13423 1.55732 7.91199 1.04066 7.51641 0.659728C7.12083 0.278795 6.5843 0.0647888 6.02486 0.0647888H2.17651C1.61707 0.0647888 1.08054 0.278795 0.68496 0.659728C0.289376 1.04066 0.0671387 1.55732 0.0671387 2.09604V23.8881C0.0681515 24.1784 0.134178 24.465 0.260715 24.7285C0.387251 24.992 0.571318 25.2261 0.800357 25.4148C0.834107 25.4432 0.869545 25.4717 0.905826 25.496C1.02892 25.5877 1.1622 25.6659 1.30323 25.7292C1.32939 25.7414 1.34795 25.7593 1.37411 25.7707C1.63362 25.8766 1.91238 25.9318 2.19423 25.9332H24.8228C25.3818 25.9319 25.9175 25.7175 26.3128 25.3368C26.7081 24.9561 26.9308 24.4402 26.9321 23.9019V20.1969C26.9321 19.6585 26.7101 19.1421 26.3149 18.7612C25.9197 18.3803 25.3836 18.1661 24.8244 18.1657V18.1673ZM7.29048 23.8881C7.29048 24.2113 7.15714 24.5213 6.91979 24.7499C6.68244 24.9784 6.36052 25.1069 6.02486 25.1069H2.17651C1.99135 25.1062 1.80865 25.0659 1.64158 24.989C1.56332 24.9524 1.48875 24.9089 1.41883 24.859C1.39773 24.8436 1.37833 24.8274 1.35808 24.8111C1.27583 24.7447 1.20268 24.6686 1.14039 24.5844L1.13364 24.5779C0.988082 24.3755 0.910082 24.1351 0.910045 23.8889V16.5277H7.29048V23.8881ZM7.29048 15.7127H0.910889V11.3106H7.29048V15.7127ZM7.29048 10.4965H0.910889V6.09435H7.29048V10.4965ZM7.29048 5.28023H0.910889V2.09604C0.910889 1.77281 1.04423 1.46281 1.28158 1.23425C1.51893 1.00569 1.84085 0.877289 2.17651 0.877289H6.02486C6.36052 0.877289 6.68244 1.00569 6.91979 1.23425C7.15714 1.46281 7.29048 1.77281 7.29048 2.09604V5.28023ZM21.1432 8.72929C21.3591 8.60918 21.6069 8.55285 21.8557 8.5673C22.1046 8.58174 22.3436 8.66633 22.5429 8.81054L22.5564 8.82191C22.6819 8.91649 22.7875 9.03311 22.8678 9.1656V9.17048L24.7907 12.379C24.9104 12.5795 24.9689 12.8085 24.9594 13.0396C24.9594 13.0502 24.9594 13.0607 24.9594 13.0713C24.9594 13.1111 24.9459 13.1525 24.9392 13.1907C24.9333 13.2328 24.9251 13.2746 24.9147 13.3159C24.8729 13.4628 24.8021 13.6008 24.7063 13.7221C24.7004 13.7294 24.6928 13.7351 24.6869 13.7416C24.5888 13.8619 24.468 13.9633 24.3309 14.0406L21.4621 15.6339L21.025 14.9027L18.2795 10.3194L21.1432 8.72929ZM17.5505 10.7256L20.739 16.0418L16.7785 18.2437L14.0498 13.705L14.9779 12.1564L17.5505 10.7256ZM11.764 3.60891L12.3977 2.55266C12.4795 2.41579 12.5885 2.29571 12.7183 2.19923L12.7242 2.19354C12.9228 2.04771 13.1618 1.96172 13.411 1.9464C13.6602 1.93107 13.9086 1.9871 14.1249 2.10741L17.4585 3.95991C17.5972 4.03744 17.7192 4.13975 17.8179 4.26135C17.8239 4.26866 17.8314 4.27516 17.8374 4.28248C18.0316 4.53387 18.1191 4.84706 18.082 5.15835V5.16566C18.077 5.20548 18.0635 5.24691 18.0542 5.28429C18.0271 5.40285 17.9816 5.5168 17.9192 5.62229L16.2654 8.38479L13.422 6.80204L10.7431 5.31191L11.764 3.60891ZM8.13592 9.66448L10.3212 6.0131L12.9698 7.48535L15.8436 9.08354L14.9416 10.5883L13.557 12.8974L10.4562 11.1717L8.13423 9.88223L8.13592 9.66448ZM8.13592 10.8207L13.1368 13.6043L10.8503 17.423L8.13423 15.9102L8.13592 10.8207ZM8.13592 16.8486L10.4267 18.1194L8.13423 21.9487L8.13592 16.8486ZM9.84029 25.1231H7.68873C7.94898 24.7993 8.1003 24.4067 8.12242 23.9978L9.83776 23.0439L9.84029 25.1231ZM10.0749 21.9763L8.60336 22.7945L10.4402 19.7305L11.3582 21.2629L10.1044 21.96C10.0909 21.9649 10.0824 21.9722 10.0723 21.9771L10.0749 21.9763ZM15.2572 25.1231H10.684V22.5759L15.2572 20.0328V25.1231ZM12.088 20.8542L10.9279 18.9164L13.5629 14.52L16.0478 18.6532L12.088 20.8542ZM20.6724 25.1239H16.0992V19.564L17.148 18.9806H20.6724V25.1239ZM26.0892 23.9052C26.0892 24.2284 25.9559 24.5384 25.7185 24.767C25.4812 24.9955 25.1593 25.1239 24.8236 25.1239H21.5161V18.9806H24.8228C25.1584 18.9806 25.4803 19.109 25.7177 19.3376C25.955 19.5661 26.0884 19.8761 26.0884 20.1994L26.0892 23.9052Z" fill="white"/>
</svg>
