<svg width="27" height="27" viewBox="0 0 27 27" fill="none" xmlns="http://www.w3.org/2000/svg">
<path fill-rule="evenodd" clip-rule="evenodd" d="M6.58792 4.06956C8.08897 3.06659 9.85374 2.53125 11.659 2.53125V3.375L11.6591 2.53125C14.0799 2.5314 16.4015 3.49312 18.1132 5.20487C19.825 6.91662 20.7867 9.23821 20.7868 11.659V11.659C20.7868 13.4643 20.2515 15.2291 19.2485 16.7302C18.2456 18.2312 16.82 19.4012 15.1521 20.092C13.4842 20.7829 11.6489 20.9636 9.8783 20.6114C8.10769 20.2593 6.48127 19.3899 5.20472 18.1134C3.92818 16.8368 3.05884 15.2104 2.70664 13.4398C2.35444 11.6692 2.5352 9.83387 3.22607 8.16599C3.91693 6.4981 5.08686 5.07254 6.58792 4.06956ZM11.659 4.21875C13.6323 4.21889 15.5247 5.00282 16.92 6.39812C18.3153 7.79341 19.0992 9.6858 19.0993 11.659M11.659 4.21875C10.1875 4.21876 8.74898 4.65513 7.52544 5.47267C6.30189 6.29022 5.34825 7.45223 4.78511 8.81177C4.22197 10.1713 4.07463 11.6673 4.36172 13.1106C4.6488 14.5538 5.35742 15.8796 6.39797 16.9201C7.43851 17.9607 8.76424 18.6693 10.2075 18.9564C11.6508 19.2435 13.1468 19.0961 14.5063 18.533C15.8659 17.9698 17.0279 17.0162 17.8454 15.7926C18.663 14.5691 19.0993 13.1306 19.0993 11.6591" fill="white"/>
<path fill-rule="evenodd" clip-rule="evenodd" d="M17.2429 17.2429C17.5724 16.9134 18.1066 16.9134 18.4361 17.2429L24.2216 23.0284C24.5511 23.3579 24.5511 23.8921 24.2216 24.2216C23.8921 24.5511 23.3578 24.5511 23.0283 24.2216L17.2429 18.4361C16.9134 18.1066 16.9134 17.5724 17.2429 17.2429Z" fill="white"/>
</svg>
