<svg width="20" height="20" viewBox="0 0 20 20" fill="none" xmlns="http://www.w3.org/2000/svg">
<path d="M6.61651 11.5085C6.50038 11.3928 6.4082 11.2552 6.34529 11.1035C6.28239 10.9519 6.25 10.7893 6.25 10.625C6.25 10.4607 6.28239 10.2981 6.34529 10.1465C6.4082 9.99484 6.50038 9.85722 6.61651 9.74155L10.3337 6.00866C10.4492 5.88937 10.587 5.79411 10.7392 5.7283C10.8914 5.66249 11.055 5.62743 11.2207 5.62512C11.3864 5.62281 11.5509 5.6533 11.7048 5.71483C11.8588 5.77637 11.9992 5.86776 12.118 5.98377C12.2367 6.09979 12.3316 6.23816 12.3971 6.391C12.4627 6.54383 12.4976 6.70813 12.4999 6.87451C12.5022 7.04089 12.4718 7.2061 12.4105 7.36071C12.3493 7.51531 12.2583 7.65628 12.1427 7.77556L9.24333 10.625L12.1427 13.4744C12.2583 13.5937 12.3493 13.7347 12.4105 13.8893C12.4718 14.0439 12.5022 14.2091 12.4999 14.3755C12.4976 14.5419 12.4627 14.7062 12.3971 14.859C12.3316 15.0118 12.2367 15.1502 12.118 15.2662C11.9992 15.3822 11.8588 15.4736 11.7048 15.5352C11.5509 15.5967 11.3864 15.6272 11.2207 15.6249C11.055 15.6226 10.8914 15.5875 10.7392 15.5217C10.587 15.4559 10.4492 15.3606 10.3337 15.2413L6.61651 11.5085Z" fill="#A8B2CC"/>
</svg>
